HIERARCHY
ROOT hip
{
  OFFSET 0 0 0
  CHANNELS 6 Xposition Yposition Zposition Zrotation Yrotation Xrotation
  JOINT abdomen
  {
    OFFSET 0 20.6881 -0.73152
    CHANNELS 3 Zrotation Xrotation Yrotation
    JOINT chest
    {
      OFFSET 0 11.7043 -0.48768
      CHANNELS 3 Zrotation Xrotation Yrotation
      JOINT neck
      {
        OFFSET 0 22.1894 -2.19456
        CHANNELS 3 Zrotation Xrotation Yrotation
        JOINT head
        {
          OFFSET -0.24384 7.07133 1.2192
          CHANNELS 3 Zrotation Xrotation Yrotation
          JOINT leftEye
          {
            OFFSET 4.14528 8.04674 8.04672
            CHANNELS 3 Zrotation Xrotation Yrotation
            End Site
            {
              OFFSET 1 0 0
            }
          }
          JOINT rightEye
          {
            OFFSET -3.6576 8.04674 8.04672
            CHANNELS 3 Zrotation Xrotation Yrotation
            End Site
            {
              OFFSET 1 0 0
            }
          }
        }
      }
      JOINT rCollar
      {
        OFFSET -2.68224 19.2634 -4.8768
        CHANNELS 3 Zrotation Xrotation Yrotation
        JOINT rShldr
        {
          OFFSET -8.77824 -1.95073 1.46304
          CHANNELS 3 Zrotation Xrotation Yrotation
          JOINT rForeArm
          {
            OFFSET -28.1742 -1.7115 0.48768
            CHANNELS 3 Zrotation Xrotation Yrotation
            JOINT rHand
            {
              OFFSET -22.5879 0.773209 7.07136
              CHANNELS 3 Zrotation Xrotation Yrotation
              JOINT rThumb1
              {
                OFFSET -1.2192 -0.487915 3.41376
                CHANNELS 3 Zrotation Xrotation Yrotation
                JOINT rThumb2
                {
                  OFFSET -3.37035 -0.52449 3.41376
                  CHANNELS 3 Zrotation Xrotation Yrotation
                  End Site
                  {
                    OFFSET -1.78271 -1.18214 1.43049
                  }
                }
              }
              JOINT rIndex1
              {
                OFFSET -7.75947 0.938293 5.60832
                CHANNELS 3 Zrotation Xrotation Yrotation
                JOINT rIndex2
                {
                  OFFSET -2.54057 -0.884171 1.56538
                  CHANNELS 3 Zrotation Xrotation Yrotation
                  End Site
                  {
                    OFFSET -1.62519 -0.234802 1.16502
                  }
                }
              }
              JOINT rMid1
              {
                OFFSET -8.24714 1.18213 3.41376
                CHANNELS 3 Zrotation Xrotation Yrotation
                JOINT rMid2
                {
                  OFFSET -3.10165 -0.590103 1.0647
                  CHANNELS 3 Zrotation Xrotation Yrotation
                  End Site
                  {
                    OFFSET -2.48547 -0.328903 0.83742
                  }
                }
              }
              JOINT rRing1
              {
                OFFSET -8.82822 0.546677 1.51678
                CHANNELS 3 Zrotation Xrotation Yrotation
                JOINT rRing2
                {
                  OFFSET -2.60934 -0.819778 -0.0198488
                  CHANNELS 3 Zrotation Xrotation Yrotation
                  End Site
                  {
                    OFFSET -2.33842 -0.294052 0.168128
                  }
                }
              }
              JOINT rPinky1
              {
                OFFSET -8.27202 -0.0477905 -0.4584
                CHANNELS 3 Zrotation Xrotation Yrotation
                JOINT rPinky2
                {
                  OFFSET -1.82734 -0.647385 -0.700984
                  CHANNELS 3 Zrotation Xrotation Yrotation
                  End Site
                  {
                    OFFSET -1.69225 -0.51767 -0.607171
                  }
                }
              }
            }
          }
        }
      }
      JOINT lCollar
      {
        OFFSET 2.68224 19.2634 -4.8768
        CHANNELS 3 Zrotation Xrotation Yrotation
        JOINT lShldr
        {
          OFFSET 8.77824 -1.95073 1.46304
          CHANNELS 3 Zrotation Xrotation Yrotation
          JOINT lForeArm
          {
            OFFSET 28.1742 -1.7115 0.48768
            CHANNELS 3 Zrotation Xrotation Yrotation
            JOINT lHand
            {
              OFFSET 22.5879 0.773209 7.07136
              CHANNELS 3 Zrotation Xrotation Yrotation
              JOINT lThumb1
              {
                OFFSET 1.2192 -0.487915 3.41376
                CHANNELS 3 Zrotation Xrotation Yrotation
                JOINT lThumb2
                {
                  OFFSET 3.37035 -0.52449 3.41376
                  CHANNELS 3 Zrotation Xrotation Yrotation
                  End Site
                  {
                    OFFSET 1.78271 -1.18214 1.43049
                  }
                }
              }
              JOINT lIndex1
              {
                OFFSET 7.75947 0.938293 5.60832
                CHANNELS 3 Zrotation Xrotation Yrotation
                JOINT lIndex2
                {
                  OFFSET 2.54057 -0.884171 1.56538
                  CHANNELS 3 Zrotation Xrotation Yrotation
                  End Site
                  {
                    OFFSET 1.62519 -0.234802 1.16502
                  }
                }
              }
              JOINT lMid1
              {
                OFFSET 8.24714 1.18213 3.41376
                CHANNELS 3 Zrotation Xrotation Yrotation
                JOINT lMid2
                {
                  OFFSET 3.10165 -0.590103 1.0647
                  CHANNELS 3 Zrotation Xrotation Yrotation
                  End Site
                  {
                    OFFSET 2.48547 -0.328903 0.83742
                  }
                }
              }
              JOINT lRing1
              {
                OFFSET 8.82822 0.546677 1.51678
                CHANNELS 3 Zrotation Xrotation Yrotation
                JOINT lRing2
                {
                  OFFSET 2.60934 -0.819778 -0.0198488
                  CHANNELS 3 Zrotation Xrotation Yrotation
                  End Site
                  {
                    OFFSET 2.33842 -0.294052 0.168128
                  }
                }
              }
              JOINT lPinky1
              {
                OFFSET 8.27202 -0.0477905 -0.4584
                CHANNELS 3 Zrotation Xrotation Yrotation
                JOINT lPinky2
                {
                  OFFSET 1.82734 -0.647385 -0.700984
                  CHANNELS 3 Zrotation Xrotation Yrotation
                  End Site
                  {
                    OFFSET 1.69225 -0.51767 -0.607171
                  }
                }
              }
            }
          }
        }
      }
    }
  }
  JOINT rButtock
  {
    OFFSET -8.77824 4.35084 1.2192
    CHANNELS 3 Zrotation Xrotation Yrotation
    JOINT rThigh
    {
      OFFSET 0 -1.70687 -2.19456
      CHANNELS 3 Zrotation Xrotation Yrotation
      JOINT rShin
      {
        OFFSET 0 -36.8199 0.73152
        CHANNELS 3 Zrotation Xrotation Yrotation
        JOINT rFoot
        {
          OFFSET 0.73152 -45.1104 -5.12064
          CHANNELS 3 Zrotation Xrotation Yrotation
          End Site
          {
            OFFSET -1.1221 -3.69964 12.103
          }
        }
      }
    }
  }
  JOINT lButtock
  {
    OFFSET 8.77824 4.35084 1.2192
    CHANNELS 3 Zrotation Xrotation Yrotation
    JOINT lThigh
    {
      OFFSET 0 -1.70687 -2.19456
      CHANNELS 3 Zrotation Xrotation Yrotation
      JOINT lShin
      {
        OFFSET 0 -36.8199 0.73152
        CHANNELS 3 Zrotation Xrotation Yrotation
        JOINT lFoot
        {
          OFFSET -0.73152 -45.1104 -5.12064
          CHANNELS 3 Zrotation Xrotation Yrotation
          End Site
          {
            OFFSET 1.1221 -3.69964 12.103
          }
        }
      }
    }
  }
}
MOTION
Frames:	4
Frame Time:	0.00833333
0.371758 85.1968 -5.86846 0.0 0.0 0.0 0.583972 -0.00303824 0.0166887 0.161171 -0.0046852 0.0279255 -1.30779e-14 0.0 -6.83322e-17 -3.9173e-14 3.18055e-15 -2.00338e-16 -0.0 0.0 0.0 -0.0 0.0 0.0 -6.46192e-15 2.01891e-17 9.93923e-17 -1.34849e-13 2.60905e-16 -5.96354e-16 -2.35227e-12 7.19799e-13 9.54166e-15 -2.69691e-11 -6.34347e-13 -1.81292e-13 -6.36089e-11 1.86795e-13 -3.72125e-13 -1.0986e-10 3.21236e-13 -6.40087e-13 -6.36055e-11 1.86858e-13 -3.81667e-13 7.73091 5.47488 0.417314 -6.36102e-11 1.8646e-13 -3.68944e-13 2.90554 0.965183 0.102902 -6.36071e-11 1.86062e-13 -3.68149e-13 10.2786 0.731801 0.0259123 -6.36171e-11 1.90833e-13 -3.62583e-13 2.22167 -0.733487 -0.20892 -6.5589e-15 2.01891e-17 -1.98785e-16 -1.38359e-13 4.28629e-16 -2.18663e-15 -2.35992e-12 -6.9018e-13 9.54166e-15 -2.69626e-11 7.81025e-13 -1.68569e-13 -6.3608e-11 1.97821e-13 -3.65764e-13 -1.09836e-10 3.40319e-13 -6.28955e-13 -6.36111e-11 1.9799e-13 -3.59403e-13 -7.73091 5.47488 -0.417314 -6.36074e-11 1.97493e-13 -3.65764e-13 -2.90554 0.965183 -0.102902 -6.36114e-11 1.97194e-13 -3.65764e-13 -10.2786 0.731801 -0.0259123 -6.35988e-11 2.00773e-13 -3.78486e-13 -2.22167 -0.733487 0.20892 -2.03217e-16 0.0 -3.88251e-19 0.939933 -4.56522 -0.0787544 -0.00191259 2.71744 -0.0075385 -0.50098 1.84802 0.0947521 2.03217e-16 0.0 3.88251e-19 -0.0508166 -2.31867 0.0217196 0.00816055 -1.35177 0.0697881 0.492841 3.67058 -0.130813
0.761263 83.5455 -6.99395 3.008 -6.7742 4.4065 -0.783087 3.47127 0.171265 0.0700291 -1.08976 0.0302381 -2.7707 1.37194 -1.63264 4.56449 -6.38452 -1.80904 -0.0 0.0 0.0 -0.0 0.0 0.0 9.55718e-16 -3.06719e-14 -1.67131e-14 21.0997 6.72845 1.45616 -4.47076 -2.08353 6.92595 0.0475569 4.84282 0.671876 1.61725e-10 -4.68371e-10 4.30109e-10 2.86234e-10 -8.12888e-10 7.40328e-10 1.61732e-10 -4.68372e-10 4.30101e-10 7.73091 5.47488 0.417314 1.61726e-10 -4.68373e-10 4.30113e-10 2.90554 0.965183 0.102902 1.61729e-10 -4.68373e-10 4.30112e-10 10.2786 0.731801 0.0259123 1.61716e-10 -4.68369e-10 4.30118e-10 2.22167 -0.733487 -0.20892 9.21158e-16 -3.06732e-14 -1.70011e-14 -20.9738 3.51407 0.106913 4.26344 -1.94542 -6.65083 -0.00106433 -0.7518 0.105631 2.14972e-11 -8.69152e-11 -4.60897e-10 3.73465e-11 -1.49455e-10 -7.97135e-10 2.14949e-11 -8.69141e-11 -4.60888e-10 -7.73091 5.47488 -0.417314 2.14987e-11 -8.69142e-11 -4.60896e-10 -2.90554 0.965183 -0.102902 2.1495e-11 -8.69149e-11 -4.60896e-10 -10.2786 0.731801 -0.0259123 2.15058e-11 -8.6912e-11 -4.60909e-10 -2.22167 -0.733487 0.20892 -2.03217e-16 0.0 -3.88251e-19 0.00251176 -9.63746 4.53002 0.0253833 12.4516 0.17087 -1.01589 -3.86504 -3.6895 2.03217e-16 0.0 3.88251e-19 -0.309055 -7.40988 0.33413 -0.0144548 8.53467 -0.0917742 0.689171 -1.37588 1.8512
0.768535 83.2704 -7.10676 2.9344 -6.8377 4.3238 -2.25479 7.11672 0.335321 -0.0250718 -2.23116 0.0325084 -5.61633 2.82508 -3.37411 8.94892 -13.0861 -3.82488 -0.0 0.0 0.0 -0.0 0.0 0.0 6.95117e-15 -6.698e-14 -3.2815e-14 43.0365 13.8061 3.05679 -8.638 -4.17288 14.2536 -0.0275052 9.97746 1.40072 4.05253e-10 -1.0034e-09 9.38114e-10 7.14903e-10 -1.74167e-09 1.61503e-09 4.05262e-10 -1.0034e-09 9.38109e-10 7.73091 5.47488 0.417314 4.05256e-10 -1.0034e-09 9.3812e-10 2.90554 0.965183 0.102902 4.05257e-10 -1.0034e-09 9.38117e-10 10.2786 0.731801 0.0259123 4.05243e-10 -1.00339e-09 9.38123e-10 2.22167 -0.733487 -0.20892 6.98287e-15 -6.69825e-14 -3.30945e-14 -43.1657 7.18178 0.231247 8.26522 -3.90157 -13.6794 0.000862753 -1.52305 0.21406 1.18456e-10 -2.29758e-10 -9.73209e-10 2.04918e-10 -3.95665e-10 -1.68314e-09 1.18455e-10 -2.29756e-10 -9.73197e-10 -7.73091 5.47488 -0.417314 1.18459e-10 -2.29755e-10 -9.73208e-10 -2.90554 0.965183 -0.102902 1.18455e-10 -2.29756e-10 -9.73208e-10 -10.2786 0.731801 -0.0259123 1.18464e-10 -2.29754e-10 -9.73221e-10 -2.22167 -0.733487 0.20892 -2.03217e-16 0.0 -3.88251e-19 -0.0707756 -14.8183 9.62662 -0.01667 22.6822 0.379866 -2.39127 -9.81336 -7.80807 2.03217e-16 0.0 3.88251e-19 -0.523535 -12.7415 0.653763 0.0247354 18.9147 -0.274568 1.28217 -6.68566 3.99668
0.773051 82.971 -7.22578 2.868 -6.837 4.2589 -3.57426 10.4196 0.487513 -0.111992 -3.2599 0.0349033 -8.07734 4.10244 -4.90912 12.4263 -19.0749 -5.70783 -0.0 0.0 0.0 -0.0 0.0 0.0 1.5791e-14 -9.20562e-14 -5.03379e-14 62.2174 20.1314 4.62129 -11.9313 -5.88603 20.8792 -0.207554 14.5203 2.07473 6.12394e-10 -1.40549e-09 1.29107e-09 1.07842e-09 -2.43931e-09 2.22226e-09 6.12406e-10 -1.40549e-09 1.29107e-09 7.73091 5.47488 0.417314 6.12399e-10 -1.40549e-09 1.29108e-09 2.90554 0.965183 0.102902 6.124e-10 -1.40549e-09 1.29107e-09 10.2786 0.731801 0.0259123 6.12383e-10 -1.40549e-09 1.29108e-09 2.22167 -0.733487 -0.20892 1.58813e-14 -9.20599e-14 -5.06058e-14 -62.9613 10.5421 0.325634 11.4605 -5.52237 -20.0379 0.0051286 -2.25537 0.317111 1.91708e-10 -2.61141e-10 -1.38196e-09 3.31712e-10 -4.49045e-10 -2.39015e-09 1.91707e-10 -2.61138e-10 -1.38194e-09 -7.73091 5.47488 -0.417314 1.91711e-10 -2.61138e-10 -1.38196e-09 -2.90554 0.965183 -0.102902 1.91708e-10 -2.61139e-10 -1.38196e-09 -10.2786 0.731801 -0.0259123 1.91715e-10 -2.61137e-10 -1.38197e-09 -2.22167 -0.733487 0.20892 -2.03217e-16 0.0 -3.88251e-19 0.677219 -19.2951 14.3784 -0.129968 31.9187 0.607466 -4.35826 -15.0148 -11.6352 2.03217e-16 0.0 3.88251e-19 -0.651648 -17.5902 0.997248 0.124552 28.3068 -0.467744 2.14262 -11.4112 5.93073
